<svg xmlns="http://www.w3.org/2000/svg" viewBox="0 0 394.83 394.83"><defs><style>.cls-1{fill:#fa642f;}.cls-2{fill:#313e6f;}.cls-3{fill:#020202;}.cls-4{fill:#686d69;}</style></defs><g id="calque_3" data-name="calque 3"><circle class="cls-1" cx="197.41" cy="197.41" r="197.41"/></g><g id="cercle"><circle class="cls-2" cx="196.08" cy="197.41" r="184.5"/></g><g id="Calque_1" data-name="Calque 1"><path class="cls-1" d="M265,141.88c3.28.87,6,2.5,7.07,5.74a17.55,17.55,0,0,1,0,12c-1.51,4-4.78,5.83-9,5.83q-43,0-86.08,0c-15.64,0-31.29-.1-46.93.07-5.82.06-11.1-4.13-10.51-10.58a33.65,33.65,0,0,0,0-3.48,8.75,8.75,0,0,1,5.93-8.89c1.68-.65,2-1.53,2-3.14,0-23,.08-46-.1-69.06a10.1,10.1,0,0,1,10.24-10.24q58.32.2,116.62,0c7,0,10.82,4.85,10.8,10.81C264.9,94.51,265,118.08,265,141.88Zm-6.82,0c.07-.73.14-1.13.14-1.53q0-35,0-70.08c0-2.62-1-3.54-3.87-3.54h-116c-3.77,0-4.58.82-4.58,4.54l0,67.93c0,2.64,0,2.64,2.73,2.64l118.91,0ZM196.08,158.8h66.38c2.79,0,3.84-1,3.89-3.78,0-.61,0-1.22,0-1.84,0-4-.81-4.82-4.76-4.82H131.89c-5.52,0-5.85.33-5.85,5.93,0,3.89.62,4.51,4.48,4.51Z"/><path class="cls-1" d="M167.91,197c4.79.28,9.2.45,13.6.81,10.6.85,21.25,1.39,31.77,2.84,7.75,1.06,13.67-2,19.34-6.33s11.15-8.75,16.67-13.21c2.08-1.67,2.31-2.89,1.36-4.31a2.41,2.41,0,0,0-3.57-.72c-3,1.69-5.88,3.44-8.71,5.32-3.64,2.41-7.17,5-10.74,7.49a3.92,3.92,0,0,0-1.22,1c-2.12,3.74-5.69,5.21-9.59,5.34-7.9.26-15.81.07-23.87.07V189h2.17c5.94,0,11.88.07,17.82,0a21,21,0,0,0,5.63-.83,3.47,3.47,0,0,0,1.87-2.21c.37-1.41-.68-2.35-2-2.64a22.16,22.16,0,0,0-4.45-.51c-5.6-.06-11.21.13-16.8-.11a20.17,20.17,0,0,1-6.38-1.68c-3.83-1.53-7.45-3.72-11.38-4.83-2.72-.77-5.83-.2-8.76-.23h-2.27v-6.4c7.74-.51,15.38-.83,22.1,3.81a17.44,17.44,0,0,0,11.55,3c4.15-.26,8.33-.05,12.5-.08,4.77,0,9.09.93,11.91,5.57,2.86-2.07,5.52-4.19,8.38-6a76.23,76.23,0,0,1,10.78-6.13c4.39-1.85,7.84-.4,10.61,3.56a8.5,8.5,0,0,1-.63,10.59,34.57,34.57,0,0,1-5.66,5.28c-6.27,4.8-12.64,9.47-19,14.16-5.25,3.88-11.21,4.48-17.5,3.88-7.94-.76-15.89-1.35-23.85-1.93-6.72-.49-13.45-.89-20.18-1.27-1-.06-1.55-.27-1.52-1.38C167.94,200.94,167.91,199.25,167.91,197Z"/><path class="cls-1" d="M129.87,186.6c0-3.55,0-7.09,0-10.64,0-3.77,2.51-6.53,6.31-6.59,7.36-.12,14.72-.08,22.08,0a6.22,6.22,0,0,1,5.87,6.41c.08,7.23.1,14.46,0,21.69-.06,4-2.73,6.6-6.75,6.65q-10.22.1-20.44,0c-4.54,0-7.05-2.65-7.06-7.15C129.86,193.56,129.87,190.08,129.87,186.6Zm6.85,10.81c6.54,0,12.94,0,19.33-.08.4,0,1.09-1.12,1.1-1.73.08-5.86,0-11.73.07-17.6,0-1.53-.56-2-2.05-2-4.5.07-9,0-13.51,0-4.94,0-4.94,0-4.94,5Z"/><path class="cls-3" d="M258.14,141.88h-2.6l-118.91,0c-2.72,0-2.72,0-2.73-2.64l0-67.93c0-3.72.81-4.54,4.58-4.54h116c2.82,0,3.87.92,3.87,3.54q0,35,0,70.08C258.28,140.75,258.21,141.15,258.14,141.88ZM196.09,71H144.46c-3.74,0-5.52,1.76-5.53,5.45q0,25.9,0,51.83c0,4.55,1.59,6.14,6.13,6.14l102.22,0c4.5,0,6-1.51,6-6V76.75c0-4.29-1.49-5.79-5.76-5.79Z"/><path d="M196.08,158.8H130.52c-3.86,0-4.48-.62-4.48-4.51,0-5.6.33-5.93,5.85-5.93H261.58c3.95,0,4.75.81,4.76,4.82,0,.62,0,1.23,0,1.84-.05,2.75-1.1,3.78-3.89,3.78H196.08Z"/><path class="cls-2" d="M136.72,197.41V181c0-5,0-5,4.94-5,4.51,0,9,0,13.51,0,1.49,0,2.07.47,2.05,2-.05,5.87,0,11.74-.07,17.6,0,.61-.7,1.73-1.1,1.73C149.66,197.44,143.26,197.41,136.72,197.41ZM151,190a3.71,3.71,0,0,0-3.82-3.66,3.67,3.67,0,0,0-3.7,3.76A3.76,3.76,0,1,0,151,190Z"/><path class="cls-1" d="M196.09,71h51.43c4.27,0,5.76,1.5,5.76,5.79v51.63c0,4.47-1.54,6-6,6l-102.22,0c-4.54,0-6.13-1.59-6.13-6.14q0-25.92,0-51.83c0-3.69,1.79-5.45,5.53-5.45Zm50.26,56.42a12.88,12.88,0,0,0,.14-1.33c0-15.5,0-31,0-46.52,0-1.83-.92-1.91-2.3-1.9q-25,0-50.11,0c-15.4,0-30.81,0-46.22,0-2.13,0-2.1,1.06-2.1,2.51q0,17.12,0,34.23v13Z"/><path class="cls-1" d="M151,190a3.76,3.76,0,1,1-7.52.1,3.67,3.67,0,0,1,3.7-3.76A3.71,3.71,0,0,1,151,190Z"/><path class="cls-4" d="M246.35,127.38H145.82v-13q0-17.11,0-34.23c0-1.45,0-2.52,2.1-2.51,15.41.1,30.82,0,46.22,0q25,0,50.11,0c1.38,0,2.31.07,2.3,1.9-.05,15.51,0,31,0,46.52A12.88,12.88,0,0,1,246.35,127.38Z"/><path class="cls-1" d="M105.45,283.92c0-5.47,0-10.94,0-16.41.06-8.43,5.89-14.53,13.82-14.53s13.79,6.13,13.88,14.54c.09,7.73,0,15.47,0,23.2,0,2.4.89,4.53,3.08,5.65a5.76,5.76,0,0,0,6.09-.49c2.06-1.38,2.34-3.45,2.34-5.65,0-7.37-.07-14.75,0-22.12.11-8.43,5.36-14.6,12.64-15.09,8.44-.57,15.08,5.6,15.16,14.34.1,11.42,0,22.84.07,34.25,0,2.16-.51,3.12-2.76,2.79a8.66,8.66,0,0,0-2.49,0c-2.2.32-2.84-.55-2.82-2.75.11-10.83.05-21.65.05-32.47,0-5.84-2.07-9-5.89-9s-6,3.15-6,8.9c0,6.9,0,13.8,0,20.7-.05,8.38-5.62,14.45-13.33,14.61-8,.17-14.07-5.86-14.26-14.57-.15-7.37,0-14.75,0-22.12,0-1.89.06-3.83-1.43-5.35a5.65,5.65,0,0,0-9.65,2.15,13.44,13.44,0,0,0-.51,4.21c0,10.94-.17,21.88,0,32.82.08,4.06-2.55,2.67-4.48,2.87-2.15.22-3.82.22-3.65-3C105.66,295.59,105.45,289.75,105.45,283.92Z"/><path class="cls-1" d="M255.25,304.37c-5.82,0-11.66-.1-17.48.05-2.25.06-2.85-.68-2.8-2.83.17-6.76-.52-5.37,5.13-5.42,9.87-.09,19.75,0,29.62,0,.83,0,1.67,0,2.5,0,4.24-.21,6.93-2.75,6.92-6.54s-2.81-6.54-6.95-6.6c-7.37-.11-14.75,0-22.13-.05-7.61,0-13.85-5.3-14.79-12.36-1.1-8.34,3.23-15.08,11-17.16a10.31,10.31,0,0,1,2.45-.42c11.66,0,23.32,0,35-.05,1.72,0,2.37.6,2.22,2.28a12.93,12.93,0,0,0,0,2.85c.36,2.54-.71,3.2-3.17,3.17-10.47-.12-20.94-.09-31.41,0-5,0-7.46,1.66-8.12,5.24-.88,4.75,1.94,8.09,7.3,8.22,6.78.16,13.56.09,20.34,0,5.18,0,9.58,1.47,12.77,5.77A14.83,14.83,0,0,1,285.36,296a12.93,12.93,0,0,1-12.26,8.31c-6,.14-11.9,0-17.85,0Z"/><path class="cls-1" d="M188.87,284.18c0,5.71-.08,11.42,0,17.13,0,2.15-.32,3.23-2.87,3.12-6.34-.26-5.22.68-5.26-5.3-.07-10.47-.1-20.94,0-31.41.09-8.74,5.68-14.67,13.64-14.74a13.91,13.91,0,0,1,13.91,13.26c.17,8.08,0,16.18.09,24.27,0,3.52,2.53,6.47,5.14,6.45,3.93,0,6.17-2.28,6.44-6.51.07-.95,0-1.9,0-2.86,0-10.35.19-20.7-.11-31-.11-3.67,1.58-3.58,4.21-3.65,2.84-.07,4.19.27,4.11,3.75-.27,11.06,0,22.13-.13,33.19-.07,8.75-6.07,14.61-14.62,14.53-7.23-.06-13-6.48-13.07-14.57,0-2.26,0-4.52,0-6.78,0-5.36.1-10.71,0-16.06-.13-4.9-4.11-7.77-8.11-6-2.46,1.09-3.42,3.08-3.4,5.72C188.9,272.52,188.87,278.35,188.87,284.18Z"/></g></svg>